<svg width="478" height="101" viewBox="0 0 478 101" fill="none" xmlns="http://www.w3.org/2000/svg">
<path d="M7.08166 99.1291C4.51 99.1291 2.78276 99.0331 1.89995 98.8412C1.3242 98.7261 0.959566 98.3806 0.806034 97.8049C0.652501 97.2291 0.575735 96.3847 0.575735 95.2716V92.2777C0.191905 91.3182 -1.01195e-05 86.8849 -1.01195e-05 78.978C-1.01195e-05 76.8286 0.115139 70.2267 0.345437 59.1723C0.537352 52.8775 0.978757 41.5737 1.66965 25.2609C1.51612 23.2266 1.43935 21.5378 1.43935 20.1944C1.43935 17.354 1.84238 15.7803 2.64842 15.4733C3.18578 15.2813 3.8191 15.1854 4.54838 15.1854L7.08166 15.3005C7.31196 15.3005 7.71498 15.3005 8.29072 15.3005C8.90485 15.2622 9.44222 15.2238 9.90281 15.1854C10.4018 15.147 10.7856 15.1278 11.0543 15.1278C12.0139 15.1278 12.5129 15.2238 12.5512 15.4157C12.9735 15.3773 13.4532 15.2813 13.9906 15.1278C15.6795 15.0127 17.3683 14.9551 19.0572 14.9551C21.245 14.9551 23.4328 15.051 25.6207 15.243C28.3075 15.4349 32.6064 15.6076 38.5174 15.7611L38.5749 15.7036L40.0143 15.646C46.1172 15.646 49.706 15.8379 50.7807 16.2217C50.1666 20.6358 49.8595 23.9367 49.8595 26.1246L49.9171 27.6215C49.9171 29.6174 49.802 33.1487 49.5717 38.2152C49.4565 44.0111 49.399 49.5574 49.399 54.8543C49.399 59.3067 49.4373 63.6056 49.5141 67.7509C49.5909 72.0499 49.6292 76.4831 49.6292 81.0507C49.6292 86.5778 49.5717 92.2969 49.4565 98.2079C47.6909 98.7069 45.4455 98.9564 42.7203 98.9564C40.7244 98.9564 39.1699 98.7453 38.0568 98.323C37.174 96.0201 36.6942 92.9302 36.6174 89.0535C36.5406 85.1385 36.5023 81.8951 36.5023 79.3235C36.5023 76.7134 36.5214 74.1609 36.5598 71.666C36.5982 69.1327 36.6174 66.9449 36.6174 65.1025V62.6268C36.6174 60.4006 36.9245 50.4402 37.5386 32.7456L37.481 31.1911C37.481 30.7305 37.5002 30.3851 37.5386 30.1548C37.577 29.9245 37.5962 29.7326 37.5962 29.579C37.5962 29.1952 37.4234 28.9841 37.078 28.9457L35.7538 29.0033C35.4851 29.0417 35.1588 29.0609 34.775 29.0609C31.5892 29.2912 28.3842 29.5598 25.1601 29.8669C18.5582 30.4426 14.9502 30.7305 14.3361 30.7305C13.7219 30.7305 13.3381 30.7881 13.1846 30.9032C13.031 30.98 12.9543 31.2103 12.9543 31.5941L13.0118 32.0547V32.8608C13.1654 35.3557 13.3957 40.3839 13.7027 47.9453L13.8179 50.7665C13.8179 53.2614 13.7795 55.8522 13.7027 58.539C13.626 60.9188 13.5876 63.2793 13.5876 65.6207C13.5876 69.1135 13.6835 72.5104 13.8755 75.8114C14.029 77.6154 14.1058 79.4578 14.1058 81.3386C14.1058 82.682 14.0674 84.0446 13.9906 85.4264C13.9138 86.8081 13.8755 88.1707 13.8755 89.5141C13.8755 91.1646 13.933 92.8151 14.0482 94.4656L14.1058 95.5019C14.1058 97.114 13.5492 98.1119 12.4361 98.4958C11.3614 98.918 9.57656 99.1291 7.08166 99.1291Z" fill="white"/>
<path d="M97.7832 84.6918C107.149 84.6918 112.522 80.3737 113.904 71.7375C114.058 70.4709 114.269 69.0507 114.537 67.477C115.267 62.9862 115.631 59.8004 115.631 57.9196C115.631 46.6734 111.869 36.5653 104.499 27.2766C103.836 26.7792 103.34 26.5505 102.841 26.2818C102.074 25.8596 101.199 25.8506 100.317 25.8506C99.6256 25.8506 98.8621 25.8506 97.3699 26.116C93.9922 27.3059 91.9874 28.595 90.9894 29.3627C88.3794 31.9727 86.3067 35.9837 84.7714 41.3958C83.2361 46.8078 82.4684 51.337 82.4684 54.9833L82.526 61.4317C82.526 64.8862 82.6918 66.0733 83.1113 71.0472C83.7745 73.3684 83.2552 72.9082 84.3684 75.3647C85.635 78.397 86.7097 80.4505 87.5926 81.5252C89.1279 83.1373 91.8531 84.1545 95.7681 84.5767C96.459 84.6534 97.1307 84.6918 97.7832 84.6918ZM92.3137 99.4885C84.3684 97.9065 80.2525 94.4141 74.8214 89.1192C73.5164 87.0849 72.0282 85.3443 70.608 80.8919C69.1879 76.4395 68.1323 72.0446 67.4414 67.7073C67.1728 65.8649 67.0384 64.2528 67.0384 62.871C67.0384 61.0287 67.2879 59.6277 67.7869 58.6681C67.6717 57.9772 67.6142 57.1712 67.6142 56.25C67.6142 54.2157 67.9596 51.2026 68.6505 47.2108C69.3414 43.2189 70.4545 39.016 71.9898 34.602C73.5635 30.1879 75.214 27.3667 76.9412 26.1385C77.8241 23.4901 80.4917 20.88 84.9441 18.3084C89.3966 15.6983 93.6762 14.1822 97.7832 13.76L100.95 13.5297C102.101 13.4145 103.099 13.3569 103.944 13.3569C104.75 13.3953 105.633 13.5872 106.592 13.9327C108.895 14.7771 111.275 16.0054 113.731 17.6175C117.071 19.8437 118.951 21.6285 119.374 22.9719C120.871 24.085 122.137 25.9466 123.174 28.5566C124.248 31.1283 125.131 33.5848 125.822 35.9262C126.513 38.2292 126.716 39.214 127.048 40.043C127.393 42.0006 128.125 43.9098 128.586 45.829C129.622 49.8208 130.159 53.9278 130.198 58.1499C130.121 58.7641 130.006 59.4358 129.852 60.1651C129.699 60.8559 129.584 61.4317 129.507 61.8923C129.507 62.6599 130.414 61.2513 130.529 61.5968C130.683 61.9038 130.529 62.4257 130.025 65.1165C129.348 68.7261 129.306 68.7106 129.037 69.555C128.769 70.3995 128.662 71.2194 128.47 72.0254C127.664 76.1708 125.976 80.3545 123.404 84.5767C120.871 88.7988 117.704 92.3398 113.904 94.2589C110.91 96.4468 107.283 97.9417 102.178 98.9013C98.762 99.5538 95.1924 99.4885 92.3137 99.4885Z" fill="white"/>
<path d="M117.408 8.30908C118.53 7.66169 119.955 8.32724 120.178 9.60353L124.451 34.005C124.728 35.5839 123.016 36.7535 121.646 35.9222L98.9418 22.1517C97.7287 21.4159 97.7481 19.649 98.9772 18.94L117.408 8.30908Z" fill="white"/>
<path d="M78.8725 8.21554C77.7319 7.4347 76.1679 8.12173 75.9714 9.48991L72.3588 34.6431C72.1308 36.2305 73.8792 37.347 75.2234 36.4723L95.9119 23.0097C97.027 22.284 97.0461 20.6578 95.9483 19.9061L78.8725 8.21554Z" fill="white"/>
<path d="M188.997 98.3578H188.175C187.196 98.3578 186.569 98.2991 186.295 98.1815L185.12 97.6526L182.476 62.9785L179.95 62.9197C178.383 62.9197 176.993 63.0177 175.779 63.2136C173.86 63.4878 172.391 63.625 171.373 63.625C169.767 63.625 167.965 63.527 165.968 63.3311L161.444 63.0372C161.327 66.0933 161.248 68.8359 161.209 71.265C161.131 76.28 160.837 82.1374 160.328 88.8372C160.289 89.4248 160.269 90.0517 160.269 90.7178L160.387 94.8904C160.387 96.1442 160.308 97.2608 160.152 98.2403C159.133 98.0836 157.958 98.0052 156.627 98.0052L154.571 98.064C153.552 98.1815 152.671 98.2403 151.927 98.2403C151.34 98.2403 150.772 98.1423 150.223 97.9464C149.479 97.633 149.107 96.105 149.107 93.3624C149.107 91.9911 149.205 90.228 149.401 88.0731C148.618 68.4441 148.206 57.317 148.167 54.692C148.01 47.1694 147.932 40.4697 147.932 34.5927C147.932 26.6392 148.128 22.1727 148.52 21.1932V17.4907C148.52 16.1194 148.715 15.2379 149.107 14.8461C149.538 14.4543 151.575 14.2584 155.217 14.2584C157.489 14.2584 159.133 14.4347 160.152 14.7873C161.327 15.2183 161.914 16.2762 161.914 17.9609V18.8424C161.797 20.5272 161.738 22.2119 161.738 23.8966C161.738 25.2679 161.777 26.6588 161.855 28.0693L161.914 31.6542C161.914 33.7308 161.836 35.7681 161.679 37.7663C161.523 39.4118 161.444 42.1936 161.444 46.1116C161.444 47.953 161.503 49.4419 161.62 50.5781C166.359 50.8915 171.079 51.0482 175.779 51.0482C177.894 51.0482 180.028 51.0091 182.182 50.9307C182.222 49.7945 182.241 48.482 182.241 46.9931L182.182 41.8214C182.104 39.6273 182.065 37.4137 182.065 35.1804C182.065 32.2419 182.124 28.7157 182.241 24.6019C182.359 20.4488 182.848 17.1969 183.71 14.8461C184.767 14.3759 186.099 14.1409 187.705 14.1409C189.859 14.1409 191.778 14.3955 193.462 14.9049L194.108 40.7635C194.578 47.3066 194.813 53.497 194.813 59.3348C194.813 61.999 194.755 64.3694 194.637 66.4459C195.224 67.2687 195.636 70.5206 195.871 76.2017C195.949 79.0618 195.988 81.1971 195.988 82.6076C195.988 83.5087 195.929 84.3707 195.812 85.1934C195.734 86.0162 195.675 86.8782 195.636 87.7793C195.636 89.229 195.753 90.8941 195.988 92.7747C196.106 93.8326 196.184 94.7925 196.223 95.6544L196.517 97.5938C195.381 97.9856 192.875 98.2403 188.997 98.3578Z" fill="white"/>
<path d="M213.986 98.3578C213.398 98.3578 212.791 98.2795 212.165 98.1228C211.577 97.966 211.225 97.3392 211.107 96.2421C211.538 94.4007 211.793 92.5201 211.871 90.6002L212.106 88.0144C212.106 86.0946 212.086 84.2335 212.047 82.4313C211.969 78.8267 211.93 75.2222 211.93 71.6176C211.93 63.8992 212.125 56.122 212.517 48.2861C212.987 39.5881 213.222 32.0264 213.222 25.601C213.222 21.4087 213.105 17.9021 212.87 15.0812L213.81 14.7286C214.123 14.7286 214.319 14.709 214.397 14.6698C214.475 14.6306 214.534 14.611 214.573 14.611C214.573 14.4543 215.004 14.3759 215.866 14.3759C217.393 14.3759 218.372 14.3368 218.803 14.2584C219.273 14.18 219.724 14.1409 220.154 14.1409C220.781 14.1409 221.525 14.278 222.387 14.5523L223.444 14.7873H224.796C225.344 14.7873 225.951 14.8461 226.617 14.9636L226.499 17.0206C225.951 20.7427 225.677 24.837 225.677 29.3034L225.794 35.533C225.794 38.5107 225.696 41.3316 225.5 43.9959L224.267 58.2769C224.267 58.3553 224.247 58.414 224.208 58.4532C224.208 58.4532 224.188 58.512 224.149 58.6295C224.345 59.2956 224.443 60.0596 224.443 60.9215C224.443 62.332 224.13 66.5438 223.503 73.557C223.895 72.6951 224.521 71.2062 225.383 69.0905L232.433 51.8122C235.605 44.133 237.485 40.0387 238.073 39.5294C238.386 38.2364 238.915 36.8064 239.659 35.2392C240.207 33.9854 240.873 32.2811 241.656 30.1262C242.557 27.5012 243.321 25.8556 243.947 25.1896V24.9545C243.947 24.2884 244.222 23.1718 244.77 21.6046C245.357 19.8807 245.808 19.0188 246.121 19.0188H246.18C246.415 17.9217 246.826 17.001 247.414 16.2566C248.001 15.473 248.784 15.0812 249.764 15.0812H250.057C252.172 14.9636 254.875 14.9049 258.165 14.9049C259.653 14.9049 260.593 14.9441 260.984 15.0224L260.926 20.5468C261.122 21.0169 261.219 23.5636 261.219 28.1868C261.219 29.4798 261.2 31.2428 261.161 33.4761C261.122 35.7093 261.043 37.9818 260.926 40.2934C260.847 42.5658 260.769 43.8392 260.691 44.1134L260.808 48.9325C261.2 53.83 261.396 59.1585 261.396 64.9179C261.396 70.6773 261.317 76.0449 261.161 81.0208V86.4276C261.161 91.9128 260.867 95.5761 260.279 97.4175C259.809 97.4567 259.339 97.5351 258.87 97.6526C258.439 97.731 257.616 97.8093 256.402 97.8877L253.053 98.0052C252.113 98.0052 251.252 97.9269 250.468 97.7701C249.294 97.4959 248.706 96.6731 248.706 95.3018V95.008C248.863 92.618 249.019 87.8381 249.176 80.6682L249.705 57.4541C249.783 53.5362 249.979 48.6191 250.292 42.7029C249.431 44.3093 248.216 46.856 246.65 50.343C242.655 59.1976 240.246 65.2313 239.424 68.4441C239.306 68.875 238.66 70.6577 237.485 73.7921C235.958 77.7493 234.939 80.0609 234.43 80.7269L232.609 84.7233C230.259 90.0125 229.025 92.951 228.908 93.5387C228.438 94.1264 228.125 94.7141 227.968 95.3018C227.498 96.3205 227.008 97.0453 226.499 97.4763C226.186 98.064 224.991 98.3578 222.916 98.3578C221.819 98.3578 220.683 98.3187 219.508 98.2403L217.393 98.1815C216.806 98.1815 216.336 98.2011 215.983 98.2403C215.317 98.3187 214.652 98.3578 213.986 98.3578Z" fill="white"/>
<path d="M338.561 100.062C337.66 100.062 336.74 100.003 335.8 99.8858C335.017 99.8075 334.331 99.7683 333.744 99.7683C331.707 99.7291 330.238 99.6116 329.338 99.4157C328.476 99.2198 327.928 98.7888 327.693 98.1228C327.497 97.4175 327.379 96.3009 327.34 94.7729V94.4203C327.34 92.3046 327.007 89.0918 326.341 84.782C325.597 80.198 324.951 75.1242 324.403 69.5607C323.854 63.7229 323.306 59.5503 322.758 57.0427C321.27 59.707 318.685 68.8359 315.003 84.4294C312.81 93.6367 311.478 98.7104 311.008 99.6507L308.717 100.062C307.699 98.1815 306.778 95.9091 305.956 93.2449L304.84 90.0713C304.135 88.4258 303.567 86.741 303.136 85.0171C302.744 83.254 302.235 81.5497 301.608 79.9042C300.668 77.6709 299.454 73.2828 297.966 66.7397C297.692 65.4468 297.418 64.2714 297.144 63.2136C296.909 62.1557 296.713 61.235 296.556 60.4514C296.321 59.7462 296.164 59.3152 296.086 59.1585C296.008 59.0017 295.91 58.9234 295.792 58.9234C295.675 58.9234 295.577 58.8842 295.499 58.8058L291.563 71.3825C290.544 74.3994 289.585 77.5534 288.684 80.8445L287.861 83.9005C286.647 88.2103 285.844 91.4622 285.453 93.6563C285.022 96.2029 284.493 97.7897 283.866 98.4166C283.357 98.9259 282.398 99.1806 280.988 99.1806C278.912 99.1806 277.189 99.0239 275.818 98.7104C274.995 98.5146 274.095 98.064 273.116 97.3587V96.4772C273.116 94.8317 273.37 91.9911 273.879 87.9556C274.388 83.8809 274.995 79.6887 275.7 75.3789C276.445 71.0299 277.11 68.3265 277.698 67.2687C277.62 67.0336 277.58 66.7202 277.58 66.3284C277.58 65.6623 277.698 64.6632 277.933 63.3311C278.403 60.3534 279.088 57.6304 279.989 55.1621C280.342 53.0856 280.968 50.4605 281.869 47.287C283.005 42.8988 283.573 40.2346 283.573 39.2943C283.847 38.8633 284.376 37.1786 285.159 34.2401C286.334 30.1262 287.783 25.6401 289.506 20.7818C291.269 15.9235 293.09 12.8675 294.97 11.6138C296.615 13.6903 297.614 16.0999 297.966 18.8424C298.24 20.2529 298.632 21.683 299.141 23.1326C302.588 33.1627 305.78 45.3672 308.717 59.7462L309.187 61.8619C310.088 60.8432 310.852 59.0017 311.478 56.3375C312.261 53.1639 316.354 43.8196 323.757 28.3044C326.381 22.78 328.241 19.0775 329.338 17.1969C330.473 15.2771 331.531 14.3172 332.51 14.3172C332.902 14.3172 333.313 14.4151 333.744 14.611C333.861 14.7286 334.057 16.57 334.331 20.1354C335.193 31.1057 336.133 37.6096 337.151 39.6469C336.995 40.5089 336.916 41.5471 336.916 42.7617C336.916 45.1909 337.269 49.246 337.974 54.927C338.326 57.4345 338.561 59.5111 338.679 61.1566L340.089 83.783C340.676 85.1542 340.97 88.9155 340.97 95.0667C340.97 97.4175 340.852 98.8672 340.617 99.4157C340.147 99.8467 339.462 100.062 338.561 100.062Z" fill="white"/>
<path d="M392.828 99.7095L391.183 99.6507C388.441 99.3765 386.15 98.9651 384.309 98.4166C383.682 96.4968 383.369 92.4221 383.369 86.1925C383.369 80.8641 383.663 76.4759 384.25 73.0281C384.329 72.7538 384.368 72.5579 384.368 72.4404C384.368 72.3229 384.348 72.2249 384.309 72.1466C384.27 72.029 384.211 71.9311 384.133 71.8527C384.054 71.7352 383.957 71.598 383.839 71.4413L382.253 74.5561C376.613 85.5656 373.421 91.4034 372.677 92.0695C372.246 92.9314 371.737 94.0872 371.149 95.5369C370.444 97.3392 369.974 98.3578 369.739 98.5929C368.721 98.7888 366.567 98.8868 363.277 98.8868C357.833 98.8868 354.661 98.5929 353.76 98.0052C353.682 97.8485 353.642 97.6722 353.642 97.4763C353.642 96.1834 354.876 93.5387 357.344 89.5424C360.163 84.9975 362.004 82.5488 362.866 82.1962C362.944 81.4518 363.943 79.6495 365.862 76.7894C367.781 73.9292 369.857 70.8928 372.089 67.6801L375.497 62.8609C374.283 62.43 372.873 62.0578 371.267 61.7443C369.661 61.3917 368.036 60.9215 366.391 60.3338C365.255 59.9029 363.943 59.3348 362.455 58.6295C360.966 57.9243 359.831 57.2386 359.047 56.5726C356.541 55.2797 354.719 53.2227 353.584 50.4018C352.409 47.5416 351.821 45.0929 351.821 43.0556C351.821 42.0369 351.939 41.0378 352.174 40.0583C351.86 39.549 351.704 38.9025 351.704 38.1189C351.704 34.005 352.605 30.0675 354.406 26.3062C355.777 23.4461 357.657 21.4479 360.046 20.3117C360.594 19.0579 361.887 17.9413 363.923 16.9618C365.999 15.9431 368.212 15.1595 370.562 14.611C372.912 14.0233 374.792 13.7295 376.202 13.7295L379.844 13.6707C386.855 13.6707 393.787 14.1605 400.641 15.14V17.0206C400.641 19.3714 400.524 23.4461 400.289 29.2447C400.289 29.9891 400.249 30.8315 400.171 31.7718C399.975 34.005 399.877 36.062 399.877 37.9426C399.877 39.5881 400.014 40.9986 400.289 42.174C399.662 47.5416 399.349 55.9653 399.349 67.445V69.4431C399.349 75.0459 399.055 80.629 398.467 86.1925C398.35 87.4071 398.232 89.1702 398.115 91.4818C397.919 95.6348 397.723 97.9856 397.527 98.5341C396.313 99.3177 394.747 99.7095 392.828 99.7095ZM380.725 51.0482L383.722 50.9895C383.761 49.3047 383.859 47.953 384.015 46.9344C384.133 45.5631 384.192 44.5248 384.192 43.8196C384.192 42.9968 384.113 41.9977 383.957 40.8223C383.917 40.2738 383.898 39.5881 383.898 38.7654C383.898 36.4538 384.094 33.339 384.485 29.421C384.681 27.2661 384.877 25.6597 385.073 24.6019L383.193 24.5431C373.911 24.5431 368.212 27.3445 366.097 32.9472C365.51 35.1412 365.216 37.061 365.216 38.7066C365.216 40.4697 365.823 42.4679 367.037 44.7011C368.369 47.2478 370.288 48.9521 372.794 49.8141C375.301 50.6368 377.945 51.0482 380.725 51.0482Z" fill="white"/>
<path d="M444.921 85.5398C454.479 85.5398 459.962 81.2804 461.373 72.7615C461.529 71.5121 461.745 70.1112 462.019 68.5589C462.763 64.1291 463.135 60.9865 463.135 59.1313C463.135 48.0378 459.375 37.9098 451.854 28.7473C451.149 28.5958 450.542 28.3876 450.033 28.1225C449.25 27.7061 448.407 27.4978 447.507 27.4978C446.801 27.4978 445.861 27.6871 444.686 28.0657C441.239 29.2395 439.007 30.2049 437.988 30.9622C435.325 33.5368 433.21 37.4933 431.643 42.8318C430.076 48.1703 429.293 52.638 429.293 56.2349L429.351 62.5956C429.351 66.0032 429.234 69.2404 428.999 72.3072C429.351 72.5722 430.096 73.9163 431.231 76.3395C432.524 79.3305 433.621 81.3561 434.522 82.4163C436.089 84.0065 438.87 85.0098 442.865 85.4263C443.57 85.502 444.255 85.5398 444.921 85.5398ZM439.34 100.136C431.427 100.136 425.434 97.2202 421.361 91.3895C420.029 89.3828 418.638 86.1835 417.189 81.7915C415.74 77.3996 414.663 73.0644 413.958 68.786C413.683 66.9687 413.546 65.3785 413.546 64.0155C413.546 62.1981 413.801 60.8161 414.31 59.8696C414.193 59.1881 414.134 58.393 414.134 57.4843C414.134 55.4777 414.486 52.5055 415.192 48.5679C415.897 44.6303 417.032 40.4844 418.599 36.1303C420.205 31.7762 421.89 28.9934 423.652 27.7818C424.553 25.1693 427.275 22.5947 431.819 20.058C436.363 17.4834 440.73 15.9879 444.921 15.5714L448.153 15.3442C449.328 15.2306 450.346 15.1738 451.208 15.1738C452.031 15.2117 452.932 15.401 453.911 15.7418C456.261 16.5747 458.689 17.7863 461.196 19.3765C464.604 21.5725 466.523 23.333 466.954 24.6582C468.482 25.7562 469.774 27.5925 470.832 30.1671C471.929 32.7038 472.83 35.127 473.535 37.4365C474.24 39.7082 474.769 41.0523 475.121 41.4688C475.474 43.3998 475.885 45.3118 476.355 47.2048C477.413 51.1425 477.961 55.1937 478 59.3585C477.922 59.9643 477.804 60.6268 477.648 61.3462C477.491 62.0277 477.373 62.5957 477.295 63.05C477.295 63.8072 477.354 64.3562 477.471 64.697C477.628 64.9999 477.746 65.511 477.824 66.2304C477.785 67.707 477.491 69.1647 476.943 70.6034C476.668 71.4364 476.433 72.2504 476.237 73.0455C475.415 77.1346 473.691 81.2615 471.067 85.4263C468.482 89.5911 465.25 92.62 461.373 94.5131C458.317 96.6712 454.185 98.2235 448.975 99.1701C445.489 99.8137 442.277 100.136 439.34 100.136Z" fill="white"/>
<line x1="2.1652" y1="-2.1652" x2="26.5045" y2="-2.1652" transform="matrix(0.891567 0.452889 -0.238171 0.971223 54.1982 43.3594)" stroke="white" stroke-width="4.3304" stroke-linecap="round"/>
<line x1="2.1652" y1="-2.1652" x2="26.2974" y2="-2.1652" transform="matrix(0.90561 -0.424111 -0.22052 -0.975383 54.9951 63.918)" stroke="white" stroke-width="4.3304" stroke-linecap="round"/>
<line x1="2.1652" y1="-2.1652" x2="24.9481" y2="-2.1652" transform="matrix(0.999499 0.0316456 -0.0152832 0.999883 52.6045 54.5991)" stroke="white" stroke-width="4.3304" stroke-linecap="round"/>
<line x1="2.1652" y1="-2.1652" x2="26.5045" y2="-2.1652" transform="matrix(-0.891567 0.452889 0.238171 0.971223 142.382 43.3599)" stroke="white" stroke-width="4.3304" stroke-linecap="round"/>
<line x1="2.1652" y1="-2.1652" x2="26.2974" y2="-2.1652" transform="matrix(-0.90561 -0.424111 0.22052 -0.975383 141.585 63.9185)" stroke="white" stroke-width="4.3304" stroke-linecap="round"/>
<line x1="2.1652" y1="-2.1652" x2="24.9481" y2="-2.1652" transform="matrix(-0.999499 0.0316456 0.0152832 0.999883 143.976 54.5996)" stroke="white" stroke-width="4.3304" stroke-linecap="round"/>
</svg>
