<svg width="142" height="30" viewBox="0 0 142 30" fill="none" xmlns="http://www.w3.org/2000/svg">
<path d="M2.10376 29.3735C1.33979 29.3735 0.826678 29.345 0.56442 29.288C0.393383 29.2538 0.285059 29.1511 0.239449 28.9801C0.193839 28.8091 0.171034 28.5582 0.171034 28.2276V27.3382C0.0570095 27.0531 -3.00621e-06 25.7361 -3.00621e-06 23.3872C-3.00621e-06 22.7487 0.0342045 20.7874 0.102619 17.5035C0.159632 15.6335 0.290761 12.2755 0.496005 7.4294C0.450395 6.82507 0.42759 6.32336 0.42759 5.92427C0.42759 5.08049 0.547317 4.61299 0.786769 4.52177C0.946404 4.46475 1.13454 4.43625 1.35119 4.43625L2.10376 4.47045C2.17217 4.47045 2.2919 4.47045 2.46294 4.47045C2.64538 4.45905 2.80501 4.44765 2.94184 4.43625C3.09007 4.42484 3.2041 4.41914 3.28391 4.41914C3.56898 4.41914 3.71721 4.44765 3.72861 4.50466C3.85404 4.49326 3.99657 4.46475 4.15621 4.41914C4.65791 4.38494 5.15962 4.36783 5.66133 4.36783C6.31128 4.36783 6.96122 4.39634 7.61116 4.45335C8.40933 4.51036 9.68641 4.56168 11.4424 4.60729L11.4595 4.59018L11.8871 4.57308C13.7001 4.57308 14.7662 4.63009 15.0855 4.74412C14.9031 6.0554 14.8118 7.03602 14.8118 7.68596L14.8289 8.13066C14.8289 8.72359 14.7947 9.77262 14.7263 11.2777C14.6921 12.9995 14.675 14.6472 14.675 16.2207C14.675 17.5434 14.6864 18.8205 14.7092 20.052C14.732 21.329 14.7434 22.646 14.7434 24.0029C14.7434 25.6449 14.7263 27.3439 14.6921 29.0998C14.1676 29.2481 13.5005 29.3222 12.691 29.3222C12.098 29.3222 11.6362 29.2595 11.3056 29.134C11.0433 28.4499 10.9008 27.532 10.878 26.3803C10.8552 25.2173 10.8438 24.2538 10.8438 23.4898C10.8438 22.7145 10.8495 21.9562 10.8609 21.215C10.8723 20.4625 10.878 19.8125 10.878 19.2652V18.5297C10.878 17.8684 10.9692 14.9094 11.1516 9.65289L11.1345 9.19109C11.1345 9.05426 11.1402 8.95164 11.1516 8.88322C11.163 8.81481 11.1687 8.75779 11.1687 8.71218C11.1687 8.59816 11.1174 8.53545 11.0148 8.52404L10.6214 8.54115C10.5416 8.55255 10.4447 8.55825 10.3307 8.55825C9.38425 8.62667 8.43214 8.70648 7.47433 8.7977C5.5131 8.96874 4.44127 9.05426 4.25883 9.05426C4.07639 9.05426 3.96236 9.07136 3.91675 9.10557C3.87114 9.12838 3.84834 9.19679 3.84834 9.31082L3.86544 9.44765V9.6871C3.91105 10.4283 3.97947 11.922 4.07069 14.1683L4.10489 15.0064C4.10489 15.7475 4.09349 16.5172 4.07069 17.3154C4.04788 18.0223 4.03648 18.7236 4.03648 19.4191C4.03648 20.4567 4.06498 21.4659 4.122 22.4465C4.16761 22.9824 4.19041 23.5297 4.19041 24.0884C4.19041 24.4875 4.17901 24.8923 4.15621 25.3028C4.1334 25.7133 4.122 26.1181 4.122 26.5172C4.122 27.0075 4.1391 27.4978 4.17331 27.9881L4.19041 28.296C4.19041 28.7749 4.02508 29.0713 3.6944 29.1854C3.37513 29.3108 2.84492 29.3735 2.10376 29.3735Z" fill="#FF92B9"/>
<path d="M29.0486 25.0846C31.8308 25.0846 33.4271 23.8018 33.8376 21.2363C33.8832 20.86 33.9459 20.4381 34.0258 19.9706C34.2424 18.6365 34.3507 17.6901 34.3507 17.1314C34.3507 13.7904 33.233 10.7876 31.0437 8.02819C30.8467 7.88043 30.6994 7.81249 30.5512 7.73267C30.3231 7.60724 30.0634 7.60458 29.8011 7.60458C29.5959 7.60458 29.3691 7.60458 28.9258 7.68342C27.9224 8.0369 27.3268 8.41986 27.0303 8.64791C26.255 9.42328 25.6392 10.6148 25.1831 12.2226C24.727 13.8303 24.499 15.1758 24.499 16.2591L24.5161 18.1747C24.5161 19.2009 24.5653 19.5536 24.69 21.0312C24.887 21.7207 24.7327 21.584 25.0634 22.3138C25.4397 23.2146 25.759 23.8246 26.0212 24.1439C26.4773 24.6228 27.2869 24.925 28.4499 25.0504C28.6552 25.0732 28.8547 25.0846 29.0486 25.0846ZM27.4237 29.4803C25.0634 29.0103 23.8407 27.9728 22.2273 26.3999C21.8396 25.7955 21.3975 25.2784 20.9756 23.9558C20.5537 22.6331 20.2402 21.3275 20.0349 20.039C19.9551 19.4917 19.9152 19.0128 19.9152 18.6023C19.9152 18.055 19.9893 17.6388 20.1375 17.3537C20.1033 17.1485 20.0862 16.909 20.0862 16.6354C20.0862 16.031 20.1888 15.1359 20.3941 13.9501C20.5993 12.7642 20.93 11.5156 21.3861 10.2043C21.8536 8.89306 22.3439 8.05498 22.857 7.6901C23.1193 6.90333 23.9118 6.12796 25.2344 5.36399C26.5571 4.58862 27.8285 4.13822 29.0486 4.01279L29.9893 3.94438C30.3314 3.91017 30.6278 3.89307 30.8787 3.89307C31.1181 3.90447 31.3804 3.96148 31.6654 4.0641C32.3496 4.31496 33.0566 4.67984 33.7863 5.15874C34.7783 5.82009 35.337 6.35031 35.4625 6.74939C35.9072 7.08007 36.2835 7.63309 36.5913 8.40846C36.9106 9.17242 37.1729 9.90219 37.3781 10.5977C37.5833 11.2819 37.6437 11.5745 37.7422 11.8207C37.8448 12.4023 38.0622 12.9695 38.1991 13.5396C38.5069 14.7254 38.6666 15.9455 38.678 17.1998C38.6552 17.3822 38.621 17.5818 38.5754 17.7984C38.5298 18.0037 38.4955 18.1747 38.4727 18.3115C38.4727 18.5396 38.7423 18.1211 38.7765 18.2237C38.8222 18.3149 38.7765 18.47 38.6267 19.2693C38.4256 20.3416 38.4131 20.3371 38.3333 20.5879C38.2534 20.8388 38.2219 21.0823 38.1649 21.3218C37.9254 22.5532 37.4237 23.7961 36.6597 25.0504C35.9072 26.3047 34.9665 27.3566 33.8376 27.9267C32.9482 28.5767 31.8707 29.0208 30.3542 29.3058C29.3393 29.4997 28.2789 29.4803 27.4237 29.4803Z" fill="#FF92B9"/>
<path d="M34.8785 2.39354C35.2119 2.20122 35.635 2.39894 35.7014 2.77808L36.9708 10.0271C37.0529 10.4961 36.5445 10.8436 36.1374 10.5966L29.3927 6.50579C29.0323 6.2872 29.0381 5.76229 29.4032 5.55169L34.8785 2.39354Z" fill="#FF92B9"/>
<path d="M23.4306 2.36543C23.0918 2.13347 22.6272 2.33757 22.5688 2.74401L21.4956 10.2163C21.4279 10.6879 21.9473 11.0196 22.3466 10.7597L28.4926 6.76035C28.8238 6.54477 28.8295 6.06166 28.5034 5.83837L23.4306 2.36543Z" fill="#FF92B9"/>
<path d="M56.1455 29.1442H55.9012C55.6103 29.1442 55.4242 29.1267 55.3427 29.0918L54.9937 28.9347L54.2083 18.634L53.4579 18.6165C52.9925 18.6165 52.5794 18.6456 52.2187 18.7038C51.6486 18.7853 51.2123 18.826 50.9098 18.826C50.4328 18.826 49.8976 18.7969 49.3042 18.7387L47.9603 18.6514C47.9254 19.5593 47.9022 20.374 47.8905 21.0957C47.8673 22.5855 47.78 24.3255 47.6287 26.3158C47.6171 26.4904 47.6113 26.6767 47.6113 26.8745L47.6462 28.1141C47.6462 28.4865 47.6229 28.8183 47.5764 29.1092C47.2739 29.0627 46.9248 29.0394 46.5292 29.0394L45.9184 29.0569C45.6159 29.0918 45.3541 29.1092 45.1331 29.1092C44.9585 29.1092 44.7898 29.0801 44.6269 29.0219C44.4059 28.9288 44.2953 28.4749 44.2953 27.6602C44.2953 27.2528 44.3244 26.729 44.3826 26.0889C44.1499 20.2576 44.0277 16.9521 44.0161 16.1723C43.9696 13.9376 43.9463 11.9473 43.9463 10.2014C43.9463 7.83863 44.0045 6.51176 44.1208 6.22078V5.12088C44.1208 4.71351 44.179 4.45162 44.2953 4.33523C44.4233 4.21884 45.0283 4.16065 46.1104 4.16065C46.7852 4.16065 47.2739 4.21302 47.5764 4.31777C47.9254 4.44581 48.1 4.76006 48.1 5.26055V5.52243C48.0651 6.02291 48.0476 6.5234 48.0476 7.02389C48.0476 7.43126 48.0592 7.84445 48.0825 8.26346L48.1 9.32844C48.1 9.94532 48.0767 10.5506 48.0302 11.1442C47.9836 11.633 47.9603 12.4594 47.9603 13.6233C47.9603 14.1703 47.9778 14.6126 48.0127 14.9502C49.4205 15.0433 50.8225 15.0898 52.2187 15.0898C52.847 15.0898 53.4811 15.0782 54.121 15.0549C54.1327 14.7174 54.1385 14.3275 54.1385 13.8852L54.121 12.3488C54.0978 11.697 54.0861 11.0394 54.0861 10.376C54.0861 9.50303 54.1036 8.4555 54.1385 7.23339C54.1734 5.99964 54.3188 5.03358 54.5748 4.33523C54.889 4.19556 55.2845 4.12573 55.7616 4.12573C56.4015 4.12573 56.9716 4.20138 57.4719 4.35269L57.6639 12.0346C57.8035 13.9783 57.8733 15.8173 57.8733 17.5515C57.8733 18.343 57.8559 19.0472 57.821 19.664C57.9955 19.9085 58.1177 20.8745 58.1875 22.5622C58.2107 23.4119 58.2224 24.0462 58.2224 24.4652C58.2224 24.7329 58.2049 24.989 58.17 25.2334C58.1467 25.4778 58.1293 25.7339 58.1177 26.0016C58.1177 26.4322 58.1526 26.9269 58.2224 27.4856C58.2573 27.7998 58.2805 28.085 58.2922 28.3411L58.3794 28.9172C58.042 29.0336 57.2974 29.1092 56.1455 29.1442Z" fill="#FF92B9"/>
<path d="M63.5689 29.1442C63.3944 29.1442 63.2141 29.1209 63.0279 29.0743C62.8534 29.0278 62.7487 28.8415 62.7138 28.5156C62.8418 27.9686 62.9174 27.4099 62.9406 26.8396L63.0105 26.0714C63.0105 25.5011 63.0046 24.9482 62.993 24.4128C62.9697 23.342 62.9581 22.2712 62.9581 21.2004C62.9581 18.9075 63.0163 16.5971 63.1326 14.2693C63.2722 11.6854 63.3421 9.43902 63.3421 7.53019C63.3421 6.2848 63.3071 5.24309 63.2373 4.40507L63.5166 4.30032C63.6097 4.30032 63.6678 4.2945 63.6911 4.28286C63.7144 4.27122 63.7318 4.2654 63.7435 4.2654C63.7435 4.21884 63.8714 4.19556 64.1274 4.19556C64.5812 4.19556 64.872 4.18392 65 4.16065C65.1397 4.13737 65.2735 4.12573 65.4014 4.12573C65.5876 4.12573 65.8087 4.16646 66.0646 4.24794L66.3788 4.31777H66.7802C66.9431 4.31777 67.1234 4.33523 67.3212 4.37015L67.2863 4.98121C67.1234 6.08693 67.042 7.30323 67.042 8.63009L67.0769 10.4807C67.0769 11.3653 67.0478 12.2033 66.9896 12.9948L66.6231 17.2373C66.6231 17.2605 66.6173 17.278 66.6057 17.2896C66.6057 17.2896 66.5998 17.3071 66.5882 17.342C66.6464 17.5399 66.6755 17.7669 66.6755 18.0229C66.6755 18.4419 66.5824 19.6931 66.3962 21.7766C66.5126 21.5205 66.6987 21.0782 66.9547 20.4497L69.049 15.3168C69.9914 13.0355 70.5499 11.8192 70.7244 11.6679C70.8175 11.2838 70.9746 10.859 71.1956 10.3934C71.3585 10.021 71.5563 9.51467 71.789 8.87452C72.0566 8.09469 72.2835 7.60584 72.4697 7.40798V7.33814C72.4697 7.14028 72.5511 6.80856 72.714 6.34299C72.8885 5.83087 73.0223 5.57481 73.1154 5.57481H73.1329C73.2027 5.24891 73.3248 4.97539 73.4994 4.75424C73.6739 4.52146 73.9066 4.40507 74.1975 4.40507H74.2847C74.913 4.37015 75.7158 4.35269 76.6931 4.35269C77.1353 4.35269 77.4145 4.36433 77.5309 4.38761L77.5134 6.02873C77.5716 6.1684 77.6007 6.92495 77.6007 8.29838C77.6007 8.68247 77.5949 9.20623 77.5832 9.86967C77.5716 10.5331 77.5483 11.2082 77.5134 11.8949C77.4901 12.57 77.4669 12.9482 77.4436 13.0297L77.4785 14.4613C77.5949 15.9162 77.653 17.4992 77.653 19.2101C77.653 20.9211 77.6298 22.5156 77.5832 23.9938V25.6C77.5832 27.2295 77.496 28.3178 77.3214 28.8648C77.1818 28.8765 77.0422 28.8997 76.9026 28.9347C76.7746 28.9579 76.5303 28.9812 76.1696 29.0045L75.1748 29.0394C74.8956 29.0394 74.6396 29.0161 74.4069 28.9696C74.0578 28.8881 73.8833 28.6437 73.8833 28.2363V28.149C73.9299 27.439 73.9764 26.019 74.0229 23.8891L74.18 16.9928C74.2033 15.8289 74.2615 14.3682 74.3545 12.6107C74.0986 13.0879 73.7379 13.8444 73.2725 14.8803C72.0857 17.5108 71.3702 19.3032 71.1258 20.2576C71.0909 20.3857 70.8989 20.9153 70.5499 21.8464C70.0961 23.0219 69.7936 23.7087 69.6424 23.9065L69.1013 25.0937C68.4032 26.665 68.0368 27.538 68.0019 27.7125C67.8622 27.8871 67.7692 28.0617 67.7226 28.2363C67.583 28.5389 67.4376 28.7542 67.2863 28.8823C67.1932 29.0569 66.8384 29.1442 66.2217 29.1442C65.8959 29.1442 65.5585 29.1325 65.2095 29.1092L64.5812 29.0918C64.4067 29.0918 64.267 29.0976 64.1623 29.1092C63.9645 29.1325 63.7667 29.1442 63.5689 29.1442Z" fill="#FF92B9"/>
<path d="M100.577 29.6505C100.309 29.6505 100.036 29.633 99.7564 29.5981C99.5237 29.5748 99.3201 29.5632 99.1456 29.5632C98.5405 29.5515 98.1042 29.5166 97.8366 29.4584C97.5807 29.4002 97.4178 29.2722 97.348 29.0743C97.2898 28.8648 97.2549 28.5331 97.2433 28.0792V27.9744C97.2433 27.3459 97.1444 26.3915 96.9466 25.1112C96.7255 23.7494 96.5335 22.2421 96.3706 20.5894C96.2077 18.8551 96.0449 17.6155 95.882 16.8706C95.4398 17.6621 94.6719 20.374 93.5782 25.0064C92.9267 27.7416 92.5311 29.2489 92.3915 29.5282L91.7108 29.6505C91.4083 29.0918 91.1349 28.4167 90.8906 27.6252L90.559 26.6825C90.3495 26.1936 90.1808 25.6931 90.0529 25.181C89.9365 24.6573 89.7853 24.1509 89.5991 23.6621C89.3199 22.9987 88.9592 21.6951 88.5171 19.7513C88.4356 19.3672 88.3542 19.0181 88.2727 18.7038C88.2029 18.3895 88.1447 18.116 88.0982 17.8832C88.0284 17.6737 87.9818 17.5457 87.9586 17.4992C87.9353 17.4526 87.9062 17.4293 87.8713 17.4293C87.8364 17.4293 87.8073 17.4177 87.784 17.3944L86.6147 21.1306C86.3122 22.0268 86.0272 22.9637 85.7596 23.9414L85.5152 24.8493C85.1545 26.1296 84.916 27.0957 84.7997 27.7475C84.6717 28.504 84.5146 28.9754 84.3285 29.1616C84.1772 29.3129 83.8922 29.3886 83.4733 29.3886C82.8566 29.3886 82.3447 29.342 81.9375 29.2489C81.6931 29.1907 81.4255 29.0569 81.1347 28.8474V28.5855C81.1347 28.0966 81.2103 27.2528 81.3616 26.054C81.5128 24.8435 81.6931 23.5981 81.9026 22.3178C82.1236 21.0258 82.3214 20.2227 82.496 19.9085C82.4727 19.8386 82.4611 19.7455 82.4611 19.6291C82.4611 19.4313 82.496 19.1345 82.5658 18.7387C82.7054 17.8541 82.909 17.0452 83.1766 16.312C83.2813 15.6951 83.4675 14.9153 83.7351 13.9725C84.0725 12.6689 84.2412 11.8774 84.2412 11.5981C84.3227 11.4701 84.4797 10.9696 84.7124 10.0966C85.0615 8.87452 85.492 7.54183 86.0039 6.09857C86.5275 4.65531 87.0685 3.74745 87.627 3.375C88.1156 3.99188 88.4123 4.70769 88.5171 5.52243C88.5985 5.94144 88.7148 6.36627 88.8661 6.79692C89.89 9.77655 90.8382 13.4022 91.7108 17.6737L91.8505 18.3023C92.1181 17.9996 92.3449 17.4526 92.5311 16.6611C92.7638 15.7184 93.9797 12.9424 96.1787 8.33329C96.9582 6.69217 97.5109 5.59226 97.8366 5.03358C98.174 4.46326 98.4882 4.1781 98.7791 4.1781C98.8954 4.1781 99.0176 4.2072 99.1456 4.2654C99.1805 4.30032 99.2386 4.84736 99.3201 5.90652C99.5761 9.16549 99.8553 11.0976 100.158 11.7028C100.111 11.9589 100.088 12.2673 100.088 12.6282C100.088 13.3498 100.193 14.5544 100.402 16.2421C100.507 16.987 100.577 17.6039 100.612 18.0928L101.03 24.8144C101.205 25.2218 101.292 26.3391 101.292 28.1665C101.292 28.8648 101.257 29.2955 101.188 29.4584C101.048 29.5864 100.844 29.6505 100.577 29.6505Z" fill="#FF92B9"/>
<path d="M116.698 29.5457L116.209 29.5282C115.395 29.4468 114.714 29.3246 114.167 29.1616C113.981 28.5913 113.888 27.3808 113.888 25.5302C113.888 23.9473 113.975 22.6437 114.15 21.6194C114.173 21.538 114.185 21.4798 114.185 21.4448C114.185 21.4099 114.179 21.3808 114.167 21.3575C114.155 21.3226 114.138 21.2935 114.115 21.2702C114.091 21.2353 114.062 21.1946 114.027 21.148L113.556 22.0734C111.881 25.344 110.933 27.0782 110.711 27.2761C110.583 27.5321 110.432 27.8755 110.258 28.3061C110.048 28.8415 109.909 29.1442 109.839 29.214C109.536 29.2722 108.896 29.3013 107.919 29.3013C106.302 29.3013 105.359 29.214 105.092 29.0394C105.069 28.9928 105.057 28.9405 105.057 28.8823C105.057 28.4982 105.423 27.7125 106.156 26.5253C106.994 25.1752 107.541 24.4477 107.797 24.343C107.82 24.1218 108.117 23.5864 108.687 22.7368C109.257 21.8871 109.874 20.9851 110.537 20.0307L111.549 18.5991C111.188 18.471 110.77 18.3605 110.293 18.2673C109.816 18.1626 109.333 18.0229 108.844 17.8483C108.507 17.7203 108.117 17.5515 107.675 17.342C107.233 17.1325 106.895 16.9288 106.663 16.731C105.918 16.3469 105.377 15.7358 105.039 14.8978C104.69 14.0481 104.516 13.3207 104.516 12.7154C104.516 12.4128 104.551 12.116 104.621 11.825C104.527 11.6737 104.481 11.4817 104.481 11.2489C104.481 10.0268 104.749 8.85706 105.284 7.73969C105.691 6.89003 106.249 6.29644 106.959 5.9589C107.122 5.58645 107.506 5.25473 108.111 4.96375C108.728 4.66113 109.385 4.42835 110.083 4.2654C110.781 4.09081 111.34 4.00352 111.759 4.00352L112.841 3.98606C114.923 3.98606 116.983 4.13155 119.019 4.42253V4.98121C119.019 5.67956 118.984 6.89003 118.914 8.61263C118.914 8.83378 118.902 9.08402 118.879 9.36336C118.821 10.0268 118.792 10.6379 118.792 11.1965C118.792 11.6854 118.833 12.1044 118.914 12.4536C118.728 14.0481 118.635 16.5506 118.635 19.9608V20.5544C118.635 22.2188 118.548 23.8774 118.373 25.5302C118.338 25.891 118.303 26.4148 118.268 27.1015C118.21 28.3352 118.152 29.0336 118.094 29.1965C117.733 29.4293 117.268 29.5457 116.698 29.5457ZM113.102 15.0898L113.993 15.0724C114.004 14.5719 114.033 14.1703 114.08 13.8677C114.115 13.4604 114.132 13.1519 114.132 12.9424C114.132 12.698 114.109 12.4012 114.062 12.052C114.051 11.8891 114.045 11.6854 114.045 11.441C114.045 10.7542 114.103 9.82893 114.219 8.66501C114.278 8.02485 114.336 7.54765 114.394 7.23339L113.835 7.21593C111.078 7.21593 109.385 8.04813 108.757 9.71254C108.582 10.3643 108.495 10.9347 108.495 11.4235C108.495 11.9473 108.675 12.5409 109.036 13.2043C109.432 13.9608 110.002 14.4671 110.746 14.7232C111.491 14.9676 112.276 15.0898 113.102 15.0898Z" fill="#FF92B9"/>
<path d="M132.173 25.3363C135.012 25.3363 136.641 24.071 137.06 21.5403C137.107 21.1691 137.171 20.7529 137.252 20.2918C137.473 18.9758 137.584 18.0422 137.584 17.4911C137.584 14.1956 136.467 11.1868 134.233 8.46489C134.023 8.4199 133.843 8.35804 133.692 8.2793C133.459 8.15558 133.209 8.09372 132.941 8.09372C132.732 8.09372 132.452 8.14996 132.103 8.26243C131.079 8.61111 130.416 8.89792 130.114 9.12288C129.322 9.88771 128.694 11.0631 128.228 12.649C127.763 14.2349 127.53 15.5621 127.53 16.6307L127.548 18.5203C127.548 19.5326 127.513 20.4942 127.443 21.4053C127.548 21.484 127.769 21.8833 128.106 22.6032C128.49 23.4917 128.816 24.0935 129.084 24.4084C129.549 24.8808 130.375 25.1789 131.562 25.3026C131.772 25.3251 131.975 25.3363 132.173 25.3363ZM130.515 29.6723C128.164 29.6723 126.384 28.8062 125.174 27.0741C124.778 26.478 124.365 25.5275 123.935 24.2228C123.504 22.9181 123.184 21.6302 122.975 20.3593C122.893 19.8194 122.853 19.347 122.853 18.9421C122.853 18.4022 122.928 17.9916 123.079 17.7104C123.045 17.508 123.027 17.2718 123.027 17.0018C123.027 16.4057 123.132 15.5228 123.341 14.353C123.551 13.1833 123.888 11.9517 124.354 10.6582C124.831 9.3647 125.331 8.538 125.855 8.17808C126.122 7.40199 126.931 6.63715 128.281 5.88356C129.631 5.11872 130.928 4.67444 132.173 4.55072L133.133 4.48323C133.482 4.44949 133.785 4.43262 134.041 4.43262C134.285 4.44386 134.553 4.50011 134.844 4.60133C135.542 4.84878 136.263 5.20871 137.008 5.68111C138.02 6.33347 138.59 6.85648 138.718 7.25015C139.172 7.57633 139.556 8.12184 139.87 8.88668C140.196 9.64027 140.464 10.3601 140.673 11.0462C140.883 11.7211 141.04 12.1204 141.145 12.2441C141.249 12.8177 141.372 13.3857 141.511 13.9481C141.825 15.1179 141.988 16.3214 142 17.5586C141.977 17.7386 141.942 17.9354 141.895 18.1491C141.849 18.3516 141.814 18.5203 141.79 18.6552C141.79 18.8802 141.808 19.0433 141.843 19.1445C141.889 19.2345 141.924 19.3863 141.948 19.6C141.936 20.0387 141.849 20.4717 141.686 20.8991C141.604 21.1466 141.534 21.3884 141.476 21.6246C141.232 22.8394 140.72 24.0653 139.94 25.3026C139.172 26.5398 138.212 27.4396 137.06 28.002C136.153 28.6431 134.925 29.1043 133.377 29.3855C132.342 29.5767 131.388 29.6723 130.515 29.6723Z" fill="#FF92B9"/>
<line x1="0.643219" y1="-0.643219" x2="7.87372" y2="-0.643219" transform="matrix(0.891567 0.452889 -0.238171 0.971223 16.1011 12.8057)" stroke="#FF92B9" stroke-width="1.28644" stroke-linecap="round"/>
<line x1="0.643219" y1="-0.643219" x2="7.81221" y2="-0.643219" transform="matrix(0.90561 -0.424111 -0.22052 -0.975383 16.3379 18.9131)" stroke="#FF92B9" stroke-width="1.28644" stroke-linecap="round"/>
<line x1="0.643219" y1="-0.643219" x2="7.41136" y2="-0.643219" transform="matrix(0.999499 0.0316456 -0.0152832 0.999883 15.6274 16.1445)" stroke="#FF92B9" stroke-width="1.28644" stroke-linecap="round"/>
<line x1="0.643219" y1="-0.643219" x2="7.87372" y2="-0.643219" transform="matrix(-0.891567 0.452889 0.238171 0.971223 42.2974 12.8062)" stroke="#FF92B9" stroke-width="1.28644" stroke-linecap="round"/>
<line x1="0.643219" y1="-0.643219" x2="7.81221" y2="-0.643219" transform="matrix(-0.90561 -0.424111 0.22052 -0.975383 42.0605 18.9136)" stroke="#FF92B9" stroke-width="1.28644" stroke-linecap="round"/>
<line x1="0.643219" y1="-0.643219" x2="7.41136" y2="-0.643219" transform="matrix(-0.999499 0.0316456 0.0152832 0.999883 42.771 16.1455)" stroke="#FF92B9" stroke-width="1.28644" stroke-linecap="round"/>
</svg>
