<svg width="142" height="30" viewBox="0 0 142 30" fill="none" xmlns="http://www.w3.org/2000/svg">
<path d="M2.10376 29.3735C1.33979 29.3735 0.826678 29.345 0.56442 29.288C0.393383 29.2538 0.285059 29.1511 0.239449 28.9801C0.193839 28.8091 0.171034 28.5582 0.171034 28.2276V27.3382C0.0570095 27.0531 -3.00621e-06 25.7361 -3.00621e-06 23.3872C-3.00621e-06 22.7487 0.0342045 20.7874 0.102619 17.5035C0.159632 15.6335 0.290761 12.2755 0.496005 7.4294C0.450395 6.82507 0.42759 6.32336 0.42759 5.92427C0.42759 5.08049 0.547317 4.61299 0.786769 4.52177C0.946404 4.46475 1.13454 4.43625 1.35119 4.43625L2.10376 4.47045C2.17217 4.47045 2.2919 4.47045 2.46294 4.47045C2.64538 4.45905 2.80501 4.44765 2.94184 4.43625C3.09007 4.42484 3.2041 4.41914 3.28391 4.41914C3.56898 4.41914 3.71721 4.44765 3.72861 4.50466C3.85404 4.49326 3.99657 4.46475 4.15621 4.41914C4.65791 4.38494 5.15962 4.36783 5.66133 4.36783C6.31128 4.36783 6.96122 4.39634 7.61116 4.45335C8.40933 4.51036 9.68641 4.56168 11.4424 4.60729L11.4595 4.59018L11.8871 4.57308C13.7001 4.57308 14.7662 4.63009 15.0855 4.74412C14.9031 6.0554 14.8118 7.03602 14.8118 7.68596L14.8289 8.13066C14.8289 8.72359 14.7947 9.77262 14.7263 11.2777C14.6921 12.9995 14.675 14.6472 14.675 16.2207C14.675 17.5434 14.6864 18.8205 14.7092 20.052C14.732 21.329 14.7434 22.646 14.7434 24.0029C14.7434 25.6449 14.7263 27.3439 14.6921 29.0998C14.1676 29.2481 13.5005 29.3222 12.691 29.3222C12.098 29.3222 11.6362 29.2595 11.3056 29.134C11.0433 28.4499 10.9008 27.532 10.878 26.3803C10.8552 25.2173 10.8438 24.2538 10.8438 23.4898C10.8438 22.7145 10.8495 21.9562 10.8609 21.215C10.8723 20.4625 10.878 19.8125 10.878 19.2652V18.5297C10.878 17.8684 10.9692 14.9094 11.1516 9.65289L11.1345 9.19109C11.1345 9.05426 11.1402 8.95164 11.1516 8.88322C11.163 8.81481 11.1687 8.75779 11.1687 8.71218C11.1687 8.59816 11.1174 8.53545 11.0148 8.52404L10.6214 8.54115C10.5416 8.55255 10.4447 8.55825 10.3307 8.55825C9.38425 8.62667 8.43214 8.70648 7.47433 8.7977C5.5131 8.96874 4.44127 9.05426 4.25883 9.05426C4.07639 9.05426 3.96236 9.07136 3.91675 9.10557C3.87114 9.12838 3.84834 9.19679 3.84834 9.31082L3.86544 9.44765V9.6871C3.91105 10.4283 3.97947 11.922 4.07069 14.1683L4.10489 15.0064C4.10489 15.7475 4.09349 16.5172 4.07069 17.3154C4.04788 18.0223 4.03648 18.7236 4.03648 19.4191C4.03648 20.4567 4.06498 21.4659 4.122 22.4465C4.16761 22.9824 4.19041 23.5297 4.19041 24.0884C4.19041 24.4875 4.17901 24.8923 4.15621 25.3028C4.1334 25.7133 4.122 26.1181 4.122 26.5172C4.122 27.0075 4.1391 27.4978 4.17331 27.9881L4.19041 28.296C4.19041 28.7749 4.02508 29.0713 3.6944 29.1854C3.37513 29.3108 2.84492 29.3735 2.10376 29.3735Z" fill="#FF92B9"/>
<path d="M29.0486 25.0846C31.8308 25.0846 33.4271 23.8018 33.8376 21.2363C33.8832 20.86 33.9459 20.4381 34.0258 19.9706C34.2424 18.6365 34.3507 17.6901 34.3507 17.1314C34.3507 13.7904 33.233 10.7876 31.0437 8.02819C30.8467 7.88043 30.6994 7.81249 30.5512 7.73267C30.3231 7.60724 30.0634 7.60458 29.8011 7.60458C29.5959 7.60458 29.3691 7.60458 28.9258 7.68342C27.9224 8.0369 27.3268 8.41986 27.0303 8.64791C26.255 9.42328 25.6392 10.6148 25.1831 12.2226C24.727 13.8303 24.499 15.1758 24.499 16.2591L24.5161 18.1747C24.5161 19.2009 24.5653 19.5536 24.69 21.0312C24.887 21.7207 24.7327 21.584 25.0634 22.3138C25.4397 23.2146 25.759 23.8246 26.0212 24.1439C26.4773 24.6228 27.2869 24.925 28.4499 25.0504C28.6552 25.0732 28.8547 25.0846 29.0486 25.0846ZM27.4237 29.4803C25.0634 29.0103 23.8407 27.9728 22.2273 26.3999C21.8396 25.7955 21.3975 25.2784 20.9756 23.9558C20.5537 22.6331 20.2402 21.3275 20.0349 20.039C19.9551 19.4917 19.9152 19.0128 19.9152 18.6023C19.9152 18.055 19.9893 17.6388 20.1375 17.3537C20.1033 17.1485 20.0862 16.909 20.0862 16.6354C20.0862 16.031 20.1888 15.1359 20.3941 13.9501C20.5993 12.7642 20.93 11.5156 21.3861 10.2043C21.8536 8.89306 22.3439 8.05498 22.857 7.6901C23.1193 6.90333 23.9118 6.12796 25.2344 5.36399C26.5571 4.58862 27.8285 4.13822 29.0486 4.01279L29.9893 3.94438C30.3314 3.91017 30.6278 3.89307 30.8787 3.89307C31.1181 3.90447 31.3804 3.96148 31.6654 4.0641C32.3496 4.31496 33.0566 4.67984 33.7863 5.15874C34.7783 5.82009 35.337 6.35031 35.4625 6.74939C35.9072 7.08007 36.2835 7.63309 36.5913 8.40846C36.9106 9.17242 37.1729 9.90219 37.3781 10.5977C37.5833 11.2819 37.6437 11.5745 37.7422 11.8207C37.8448 12.4023 38.0622 12.9695 38.1991 13.5396C38.5069 14.7254 38.6666 15.9455 38.678 17.1998C38.6552 17.3822 38.621 17.5818 38.5754 17.7984C38.5298 18.0037 38.4955 18.1747 38.4727 18.3115C38.4727 18.5396 38.7423 18.1211 38.7765 18.2237C38.8222 18.3149 38.7765 18.47 38.6267 19.2693C38.4256 20.3416 38.4131 20.3371 38.3333 20.5879C38.2534 20.8388 38.2219 21.0823 38.1649 21.3218C37.9254 22.5532 37.4237 23.7961 36.6597 25.0504C35.9072 26.3047 34.9665 27.3566 33.8376 27.9267C32.9482 28.5767 31.8707 29.0208 30.3542 29.3058C29.3393 29.4997 28.2789 29.4803 27.4237 29.4803Z" fill="#FF92B9"/>
<path d="M34.8787 2.39354C35.2121 2.20122 35.6353 2.39894 35.7017 2.77808L36.9711 10.0271C37.0532 10.4961 36.5447 10.8436 36.1376 10.5966L29.393 6.50579C29.0326 6.2872 29.0383 5.76229 29.4035 5.55169L34.8787 2.39354Z" fill="#FF92B9"/>
<path d="M23.4309 2.36592C23.0921 2.13396 22.6275 2.33805 22.5691 2.7445L21.4959 10.2168C21.4281 10.6884 21.9475 11.02 22.3469 10.7602L28.4928 6.76084C28.8241 6.54526 28.8298 6.06214 28.5036 5.83886L23.4309 2.36592Z" fill="#FF92B9"/>
<path d="M56.1458 29.1444H55.9014C55.6106 29.1444 55.4244 29.1269 55.343 29.092L54.9939 28.9349L54.2086 18.6342L53.4581 18.6168C52.9927 18.6168 52.5797 18.6459 52.219 18.7041C51.6489 18.7855 51.2126 18.8263 50.91 18.8263C50.433 18.8263 49.8978 18.7972 49.3044 18.739L47.9606 18.6517C47.9257 19.5595 47.9024 20.3743 47.8908 21.0959C47.8675 22.5857 47.7802 24.3258 47.629 26.3161C47.6174 26.4907 47.6115 26.6769 47.6115 26.8748L47.6464 28.1143C47.6464 28.4868 47.6232 28.8185 47.5766 29.1095C47.2741 29.0629 46.9251 29.0396 46.5295 29.0396L45.9187 29.0571C45.6161 29.092 45.3544 29.1095 45.1333 29.1095C44.9588 29.1095 44.7901 29.0804 44.6272 29.0222C44.4061 28.9291 44.2956 28.4751 44.2956 27.6604C44.2956 27.253 44.3247 26.7293 44.3828 26.0891C44.1501 20.2579 44.028 16.9524 44.0163 16.1725C43.9698 13.9378 43.9465 11.9475 43.9465 10.2016C43.9465 7.83887 44.0047 6.512 44.1211 6.22103V5.12112C44.1211 4.71375 44.1792 4.45187 44.2956 4.33548C44.4236 4.21909 45.0286 4.16089 46.1106 4.16089C46.7855 4.16089 47.2741 4.21327 47.5766 4.31802C47.9257 4.44605 48.1002 4.76031 48.1002 5.26079V5.52267C48.0653 6.02316 48.0479 6.52364 48.0479 7.02413C48.0479 7.4315 48.0595 7.84469 48.0828 8.2637L48.1002 9.32869C48.1002 9.94556 48.0769 10.5508 48.0304 11.1444C47.9839 11.6332 47.9606 12.4596 47.9606 13.6235C47.9606 14.1706 47.978 14.6129 48.0129 14.9504C49.4208 15.0435 50.8228 15.0901 52.219 15.0901C52.8473 15.0901 53.4814 15.0784 54.1213 15.0552C54.1329 14.7176 54.1387 14.3277 54.1387 13.8854L54.1213 12.3491C54.098 11.6973 54.0864 11.0396 54.0864 10.3762C54.0864 9.50328 54.1038 8.45575 54.1387 7.23363C54.1736 5.99988 54.3191 5.03383 54.5751 4.33548C54.8892 4.19581 55.2848 4.12597 55.7618 4.12597C56.4017 4.12597 56.9719 4.20163 57.4722 4.35294L57.6641 12.0348C57.8038 13.9785 57.8736 15.8175 57.8736 17.5518C57.8736 18.3432 57.8561 19.0474 57.8212 19.6643C57.9957 19.9087 58.1179 20.8748 58.1877 22.5624C58.211 23.4121 58.2226 24.0464 58.2226 24.4655C58.2226 24.7332 58.2052 24.9892 58.1703 25.2336C58.147 25.4781 58.1295 25.7341 58.1179 26.0018C58.1179 26.4325 58.1528 26.9271 58.2226 27.4858C58.2575 27.8001 58.2808 28.0852 58.2924 28.3413L58.3797 28.9174C58.0423 29.0338 57.2976 29.1095 56.1458 29.1444Z" fill="#FF92B9"/>
<path d="M63.5692 29.1444C63.3947 29.1444 63.2143 29.1211 63.0282 29.0746C62.8536 29.028 62.7489 28.8418 62.714 28.5159C62.842 27.9688 62.9176 27.4102 62.9409 26.8398L63.0107 26.0717C63.0107 25.5013 63.0049 24.9485 62.9932 24.4131C62.97 23.3423 62.9583 22.2715 62.9583 21.2007C62.9583 18.9077 63.0165 16.5974 63.1329 14.2695C63.2725 11.6856 63.3423 9.43926 63.3423 7.53043C63.3423 6.28504 63.3074 5.24333 63.2376 4.40531L63.5168 4.30056C63.6099 4.30056 63.6681 4.29474 63.6913 4.2831C63.7146 4.27146 63.7321 4.26564 63.7437 4.26564C63.7437 4.21909 63.8717 4.19581 64.1277 4.19581C64.5814 4.19581 64.8723 4.18417 65.0003 4.16089C65.1399 4.13761 65.2737 4.12597 65.4017 4.12597C65.5878 4.12597 65.8089 4.16671 66.0649 4.24818L66.379 4.31802H66.7804C66.9433 4.31802 67.1237 4.33548 67.3215 4.37039L67.2865 4.98145C67.1237 6.08717 67.0422 7.30347 67.0422 8.63034L67.0771 10.481C67.0771 11.3655 67.048 12.2036 66.9899 12.995L66.6234 17.2375C66.6234 17.2608 66.6175 17.2783 66.6059 17.2899C66.6059 17.2899 66.6001 17.3074 66.5884 17.3423C66.6466 17.5401 66.6757 17.7671 66.6757 18.0232C66.6757 18.4422 66.5826 19.6934 66.3965 21.7768C66.5128 21.5207 66.699 21.0784 66.9549 20.4499L69.0492 15.317C69.9917 13.0358 70.5501 11.8195 70.7247 11.6682C70.8178 11.2841 70.9748 10.8592 71.1959 10.3937C71.3588 10.0212 71.5566 9.51491 71.7893 8.87476C72.0569 8.09493 72.2838 7.60609 72.4699 7.40822V7.33839C72.4699 7.14052 72.5514 6.8088 72.7142 6.34324C72.8888 5.83111 73.0226 5.57505 73.1157 5.57505H73.1331C73.2029 5.24915 73.3251 4.97563 73.4996 4.75449C73.6741 4.5217 73.9068 4.40531 74.1977 4.40531H74.285C74.9132 4.37039 75.7161 4.35294 76.6934 4.35294C77.1355 4.35294 77.4148 4.36457 77.5311 4.38785L77.5137 6.02898C77.5718 6.16865 77.6009 6.9252 77.6009 8.29862C77.6009 8.68271 77.5951 9.20648 77.5835 9.86991C77.5718 10.5333 77.5486 11.2084 77.5137 11.8951C77.4904 12.5702 77.4671 12.9485 77.4439 13.0299L77.4788 14.4616C77.5951 15.9165 77.6533 17.4994 77.6533 19.2104C77.6533 20.9213 77.63 22.5159 77.5835 23.9941V25.6003C77.5835 27.2298 77.4962 28.318 77.3217 28.8651C77.1821 28.8767 77.0424 28.9 76.9028 28.9349C76.7748 28.9582 76.5305 28.9815 76.1698 29.0047L75.175 29.0396C74.8958 29.0396 74.6398 29.0164 74.4071 28.9698C74.0581 28.8883 73.8836 28.6439 73.8836 28.2365V28.1493C73.9301 27.4393 73.9766 26.0193 74.0232 23.8893L74.1802 16.9931C74.2035 15.8292 74.2617 14.3685 74.3548 12.6109C74.0988 13.0881 73.7381 13.8447 73.2727 14.8806C72.086 17.511 71.3704 19.3035 71.1261 20.2579C71.0912 20.3859 70.8992 20.9155 70.5501 21.8466C70.0964 23.0222 69.7939 23.7089 69.6426 23.9068L69.1016 25.094C68.4035 26.6653 68.037 27.5382 68.0021 27.7128C67.8625 27.8874 67.7694 28.062 67.7229 28.2365C67.5832 28.5392 67.4378 28.7545 67.2865 28.8825C67.1935 29.0571 66.8386 29.1444 66.2219 29.1444C65.8962 29.1444 65.5588 29.1328 65.2097 29.1095L64.5814 29.092C64.4069 29.092 64.2673 29.0978 64.1626 29.1095C63.9648 29.1328 63.767 29.1444 63.5692 29.1444Z" fill="#FF92B9"/>
<path d="M100.577 29.6507C100.309 29.6507 100.036 29.6332 99.7566 29.5983C99.5239 29.5751 99.3203 29.5634 99.1458 29.5634C98.5408 29.5518 98.1045 29.5169 97.8369 29.4587C97.5809 29.4005 97.418 29.2724 97.3482 29.0746C97.29 28.8651 97.2551 28.5333 97.2435 28.0794V27.9747C97.2435 27.3461 97.1446 26.3917 96.9468 25.1114C96.7257 23.7496 96.5338 22.2424 96.3709 20.5896C96.208 18.8554 96.0451 17.6158 95.8822 16.8709C95.4401 17.6623 94.6722 20.3743 93.5785 25.0067C92.9269 27.7419 92.5313 29.2491 92.3917 29.5285L91.7111 29.6507C91.4086 29.092 91.1352 28.417 90.8908 27.6255L90.5592 26.6827C90.3498 26.1939 90.1811 25.6934 90.0531 25.1813C89.9368 24.6575 89.7855 24.1512 89.5993 23.6623C89.3201 22.9989 88.9594 21.6953 88.5173 19.7516C88.4359 19.3675 88.3544 19.0183 88.273 18.7041C88.2031 18.3898 88.145 18.1163 88.0984 17.8835C88.0286 17.674 87.9821 17.546 87.9588 17.4994C87.9355 17.4528 87.9065 17.4296 87.8716 17.4296C87.8366 17.4296 87.8076 17.4179 87.7843 17.3946L86.615 21.1308C86.3125 22.027 86.0274 22.964 85.7598 23.9417L85.5155 24.8495C85.1548 26.1299 84.9163 27.0959 84.7999 27.7477C84.6719 28.5042 84.5149 28.9756 84.3287 29.1619C84.1775 29.3132 83.8924 29.3888 83.4735 29.3888C82.8569 29.3888 82.3449 29.3423 81.9377 29.2492C81.6934 29.191 81.4258 29.0571 81.1349 28.8476V28.5857C81.1349 28.0969 81.2105 27.253 81.3618 26.0542C81.5131 24.8437 81.6934 23.5983 81.9028 22.318C82.1239 21.0261 82.3217 20.223 82.4962 19.9087C82.4729 19.8389 82.4613 19.7458 82.4613 19.6294C82.4613 19.4315 82.4962 19.1347 82.566 18.739C82.7056 17.8544 82.9092 17.0455 83.1768 16.3122C83.2816 15.6953 83.4677 14.9155 83.7353 13.9727C84.0727 12.6691 84.2415 11.8777 84.2415 11.5983C84.3229 11.4703 84.48 10.9698 84.7127 10.0969C85.0617 8.87476 85.4922 7.54207 86.0041 6.09881C86.5277 4.65555 87.0687 3.7477 87.6272 3.37524C88.1159 3.99212 88.4126 4.70793 88.5173 5.52267C88.5987 5.94168 88.7151 6.36652 88.8663 6.79717C89.8902 9.7768 90.8385 13.4024 91.7111 17.674L91.8507 18.3025C92.1183 17.9999 92.3452 17.4528 92.5313 16.6614C92.764 15.7186 93.9799 12.9427 96.1789 8.33354C96.9584 6.69241 97.5111 5.59251 97.8369 5.03383C98.1743 4.46351 98.4884 4.17835 98.7793 4.17835C98.8957 4.17835 99.0178 4.20745 99.1458 4.26564C99.1807 4.30056 99.2389 4.8476 99.3203 5.90677C99.5763 9.16574 99.8555 11.0978 100.158 11.7031C100.112 11.9591 100.088 12.2676 100.088 12.6284C100.088 13.35 100.193 14.5547 100.402 16.2424C100.507 16.9873 100.577 17.6041 100.612 18.093L101.031 24.8146C101.205 25.222 101.292 26.3394 101.292 28.1667C101.292 28.8651 101.258 29.2957 101.188 29.4587C101.048 29.5867 100.845 29.6507 100.577 29.6507Z" fill="#FF92B9"/>
<path d="M116.698 29.5459L116.209 29.5285C115.395 29.447 114.714 29.3248 114.167 29.1619C113.981 28.5915 113.888 27.3811 113.888 25.5304C113.888 23.9475 113.975 22.6439 114.15 21.6197C114.173 21.5382 114.185 21.48 114.185 21.4451C114.185 21.4102 114.179 21.3811 114.167 21.3578C114.156 21.3229 114.138 21.2938 114.115 21.2705C114.092 21.2356 114.063 21.1948 114.028 21.1483L113.556 22.0736C111.881 25.3442 110.933 27.0784 110.712 27.2763C110.584 27.5324 110.432 27.8757 110.258 28.3064C110.049 28.8418 109.909 29.1444 109.839 29.2142C109.537 29.2724 108.897 29.3015 107.919 29.3015C106.302 29.3015 105.36 29.2142 105.092 29.0396C105.069 28.9931 105.057 28.9407 105.057 28.8825C105.057 28.4984 105.424 27.7128 106.157 26.5256C106.994 25.1754 107.541 24.448 107.797 24.3432C107.82 24.1221 108.117 23.5867 108.687 22.737C109.257 21.8874 109.874 20.9853 110.537 20.0309L111.549 18.5993C111.189 18.4713 110.77 18.3607 110.293 18.2676C109.816 18.1628 109.333 18.0232 108.844 17.8486C108.507 17.7205 108.117 17.5518 107.675 17.3423C107.233 17.1328 106.895 16.9291 106.663 16.7312C105.918 16.3471 105.377 15.7361 105.04 14.898C104.691 14.0484 104.516 13.3209 104.516 12.7157C104.516 12.4131 104.551 12.1163 104.621 11.8253C104.528 11.674 104.481 11.4819 104.481 11.2492C104.481 10.027 104.749 8.8573 105.284 7.73994C105.691 6.89028 106.25 6.29668 106.959 5.95914C107.122 5.58669 107.506 5.25497 108.111 4.96399C108.728 4.66137 109.385 4.42859 110.083 4.26564C110.782 4.09105 111.34 4.00376 111.759 4.00376L112.841 3.9863C114.924 3.9863 116.983 4.13179 119.019 4.42277V4.98145C119.019 5.6798 118.984 6.89028 118.914 8.61288C118.914 8.83402 118.903 9.08426 118.879 9.36361C118.821 10.027 118.792 10.6381 118.792 11.1968C118.792 11.6856 118.833 12.1046 118.914 12.4538C118.728 14.0484 118.635 16.5508 118.635 19.9611V20.5547C118.635 22.2191 118.548 23.8777 118.373 25.5304C118.338 25.8913 118.304 26.415 118.269 27.1017C118.21 28.3355 118.152 29.0338 118.094 29.1968C117.733 29.4296 117.268 29.5459 116.698 29.5459ZM113.103 15.0901L113.993 15.0726C114.004 14.5721 114.033 14.1706 114.08 13.868C114.115 13.4606 114.132 13.1522 114.132 12.9427C114.132 12.6982 114.109 12.4014 114.063 12.0523C114.051 11.8893 114.045 11.6856 114.045 11.4412C114.045 10.7545 114.103 9.82917 114.22 8.66525C114.278 8.0251 114.336 7.54789 114.394 7.23363L113.836 7.21618C111.078 7.21618 109.385 8.04838 108.757 9.71278C108.583 10.3646 108.495 10.9349 108.495 11.4237C108.495 11.9475 108.676 12.5411 109.036 13.2045C109.432 13.9611 110.002 14.4674 110.747 14.7234C111.491 14.9679 112.277 15.0901 113.103 15.0901Z" fill="#FF92B9"/>
<path d="M132.173 25.3366C135.013 25.3366 136.642 24.0712 137.061 21.5405C137.107 21.1693 137.171 20.7532 137.253 20.292C137.474 18.976 137.584 18.0425 137.584 17.4914C137.584 14.1958 136.467 11.1871 134.233 8.46514C134.024 8.42015 133.843 8.35828 133.692 8.27955C133.459 8.15582 133.209 8.09396 132.941 8.09396C132.732 8.09396 132.453 8.1502 132.104 8.26268C131.08 8.61135 130.416 8.89817 130.114 9.12312C129.323 9.88796 128.694 11.0633 128.229 12.6493C127.763 14.2352 127.531 15.5624 127.531 16.6309L127.548 18.5205C127.548 19.5328 127.513 20.4945 127.443 21.4055C127.548 21.4843 127.769 21.8836 128.107 22.6034C128.491 23.492 128.816 24.0937 129.084 24.4086C129.549 24.881 130.376 25.1791 131.562 25.3028C131.772 25.3253 131.976 25.3366 132.173 25.3366ZM130.515 29.6725C128.165 29.6725 126.384 28.8065 125.174 27.0743C124.779 26.4782 124.365 25.5278 123.935 24.2231C123.504 22.9183 123.184 21.6305 122.975 20.3595C122.894 19.8196 122.853 19.3472 122.853 18.9423C122.853 18.4024 122.928 17.9919 123.08 17.7107C123.045 17.5082 123.027 17.272 123.027 17.0021C123.027 16.406 123.132 15.523 123.342 14.3533C123.551 13.1835 123.888 11.9519 124.354 10.6584C124.831 9.36495 125.331 8.53825 125.855 8.17832C126.123 7.40224 126.931 6.63739 128.281 5.8838C129.631 5.11896 130.928 4.67469 132.173 4.55096L133.133 4.48347C133.482 4.44973 133.785 4.43286 134.041 4.43286C134.285 4.44411 134.553 4.50035 134.844 4.60158C135.542 4.84903 136.263 5.20895 137.008 5.68135C138.021 6.33371 138.591 6.85673 138.719 7.25039C139.173 7.57657 139.557 8.12208 139.871 8.88692C140.197 9.64051 140.464 10.3604 140.674 11.0465C140.883 11.7213 141.04 12.1206 141.145 12.2443C141.25 12.818 141.372 13.386 141.511 13.9484C141.826 15.1181 141.988 16.3216 142 17.5588C141.977 17.7388 141.942 17.9356 141.895 18.1493C141.849 18.3518 141.814 18.5205 141.791 18.6555C141.791 18.8804 141.808 19.0435 141.843 19.1448C141.89 19.2347 141.924 19.3866 141.948 19.6003C141.936 20.0389 141.849 20.472 141.686 20.8994C141.605 21.1468 141.535 21.3887 141.477 21.6249C141.232 22.8396 140.72 24.0656 139.941 25.3028C139.173 26.5401 138.213 27.4399 137.061 28.0023C136.153 28.6434 134.925 29.1045 133.378 29.3857C132.342 29.5769 131.388 29.6725 130.515 29.6725Z" fill="#FF92B9"/>
</svg>
